<svg width="423" height="423" viewBox="0 0 423 423" fill="none" xmlns="http://www.w3.org/2000/svg">
<path d="M88.9368 422.45V400.216H44.4684V377.982H22.2342V355.747H0V222.342H22.2342V177.874H44.4684V155.639H66.7026V133.405H88.9368V111.171H66.7026V22.2342H133.405V0H289.045V22.2342H355.747V111.171H333.513V133.405H355.747V155.639H377.982V177.874H400.216V222.342H422.45V355.747H400.216V377.982H377.982V400.216H333.513V422.45H88.9368Z" fill="#FFDD31"/>
<path fill-rule="evenodd" clip-rule="evenodd" d="M111.171 400.216V377.982H66.7028V355.747H44.4686V333.513H22.2344V244.576H44.4686V200.108H66.7028V177.874H88.937V155.639H111.171V133.405H133.405V111.171H111.171V88.9368H88.937V44.4683H155.64V22.2341H266.811V44.4683H333.513V88.9368H311.279V111.171H289.045V133.405H311.279V155.639H333.513V177.874H355.748V200.108H377.982V244.576H400.216V333.513H377.982V355.747H355.748V377.982H311.279V400.216H111.171ZM311.279 377.982V355.747H355.748V333.513H377.982V244.576H355.748V200.108H333.513V177.874H311.279V155.639H289.045V133.405H133.405V155.639H111.171V177.874H88.937V200.108H66.7028V244.576H44.4686V333.513H66.7028V355.747H111.171V377.982H311.279ZM200.108 355.747V333.513H177.874V311.279H155.64V289.045H177.874V311.279H200.108V266.81H177.874V244.576H155.64V200.108H177.874V177.874H200.108V155.639H222.342V177.874H244.576V200.108H266.811V222.342H244.576V200.108H222.342V244.576H244.576V266.81H266.811V311.279H244.576V333.513H222.342V355.747H200.108ZM244.576 311.279V266.81H222.342V311.279H244.576ZM200.108 244.576V200.108H177.874V244.576H200.108ZM289.045 111.171V88.9368H311.279V66.7026H244.576V44.4683H177.874V66.7026H111.171V88.9368H133.405V111.171H289.045Z" fill="#21101A"/>
</svg>
