<svg width="1280" height="1280" viewBox="0 0 1280 1280" fill="none" xmlns="http://www.w3.org/2000/svg">
<mask id="mask0_351_139" style="mask-type:alpha" maskUnits="userSpaceOnUse" x="0" y="0" width="1280" height="1280">
<circle cx="640" cy="640" r="640" fill="#D9D9D9"/>
</mask>
<g mask="url(#mask0_351_139)">
<g clip-path="url(#clip0_351_139)">
<rect width="1280" height="1280" fill="#FFDE17"/>
<rect width="1280" height="1280" fill="white"/>
<path d="M640 1280C993.462 1280 1280 993.462 1280 640C1280 286.538 993.462 0 640 0C286.538 0 0 286.538 0 640C0 993.462 286.538 1280 640 1280Z" fill="#FFDE17"/>
<path d="M806.83 277C710.055 277 631.61 355.445 631.61 452.219C631.61 507.643 657.412 556.949 697.553 589.062V628.406C697.553 654.086 718.374 674.907 744.054 674.907C768.018 674.907 787.509 656.722 790.048 633.435H790.555V626.616C795.924 627.1 801.34 627.438 806.854 627.438C903.628 627.438 982.073 548.994 982.073 452.219C982.073 355.445 903.628 277 806.854 277H806.83Z" fill="black"/>
<path d="M533.845 582.533C500.91 581.324 469.885 589.231 443.092 603.958V372.395C443.092 345.771 420.24 324.468 393.06 327.055C369.386 329.304 352 350.559 352 374.354V955.315C352 980.464 372.385 1000.87 397.558 1000.87C422.731 1000.87 443.116 980.488 443.116 955.315V757.631C443.116 707.599 487.03 667.627 538.319 674.205C580.733 679.646 611.371 717.804 611.371 760.557V954.928C611.371 978.723 628.757 999.954 652.431 1002.23C679.587 1004.81 702.463 983.535 702.463 956.887V762.54C702.463 667.482 628.83 586.039 533.845 582.508V582.533Z" fill="black"/>
<path d="M806.829 685.836C781.681 685.836 761.271 706.221 761.271 731.394V956.911C761.271 982.059 781.656 1002.47 806.829 1002.47C832.002 1002.47 852.387 982.084 852.387 956.911V731.394C852.387 706.245 832.002 685.836 806.829 685.836Z" fill="black"/>
<path d="M713.537 465.374C724.371 458.095 738.589 454.444 756.145 454.444C759.506 454.444 763.013 454.589 766.664 454.855C770.316 455.121 773.169 455.46 775.224 455.822L778.029 456.379V449.076C778.029 444.602 776.675 441.289 773.967 439.137C771.259 436.985 766.181 435.921 758.708 435.921C755.71 435.921 752.639 436.187 749.447 436.743C746.255 437.299 742.628 438.001 738.517 438.847C734.406 439.693 730.755 440.395 727.587 440.951C717.31 442.619 710.974 439.258 708.532 430.843C705.364 419.623 710.394 411.038 723.669 405.065C733.947 400.374 747.875 398.053 765.431 398.053C784.292 398.053 798.584 402.962 808.305 412.779C818.002 422.597 822.862 435.897 822.862 452.703V514.366C822.862 521.282 820.952 526.964 817.131 531.462C813.286 535.936 807.555 538.185 799.89 538.185C789.782 538.185 782.696 533.977 778.586 525.586C770.001 535.863 757.765 540.99 741.878 540.99C727.49 540.99 716.463 537.29 708.798 529.915C701.132 522.539 697.312 512.601 697.312 500.075C697.312 484.187 702.728 472.604 713.562 465.326L713.537 465.374ZM771.549 500.679C775.853 497.124 778.005 492.554 778.005 486.944V480.222C772.758 479.278 767.728 478.819 762.868 478.819C749.979 478.819 743.522 483.945 743.522 494.223C743.522 497.584 744.732 500.389 747.15 502.638C749.592 504.887 752.856 505.999 756.967 505.999C762.384 505.999 767.244 504.21 771.525 500.679H771.549Z" fill="white"/>
<path d="M856.21 347.95C860.683 344.033 866.777 342.074 874.418 342.074C882.06 342.074 887.912 344.081 892.506 348.095C897.076 352.11 899.374 357.575 899.374 364.49C899.374 371.769 897.101 377.331 892.506 381.176C887.936 384.996 881.915 386.907 874.418 386.907C866.922 386.907 860.683 384.996 856.21 381.176C851.736 377.331 849.487 371.769 849.487 364.49C849.487 357.212 851.736 351.892 856.21 347.95ZM850.6 424.461C850.6 417.738 852.703 412.128 856.911 407.63C861.119 403.157 866.946 400.908 874.418 400.908C881.891 400.908 887.742 403.157 891.95 407.63C896.158 412.128 898.261 417.738 898.261 424.461V514.416C898.261 521.332 896.206 527.014 892.095 531.512C887.984 535.986 882.108 538.235 874.443 538.235C866.777 538.235 861.143 535.986 856.935 531.512C852.728 527.039 850.624 521.332 850.624 514.416V424.461H850.6Z" fill="white"/>
</g>
</g>
<defs>
<clipPath id="clip0_351_139">
<rect width="1280" height="1280" fill="white"/>
</clipPath>
</defs>
</svg>
