<svg width="1040" height="1373" viewBox="0 0 1040 1373" fill="none" xmlns="http://www.w3.org/2000/svg">
<path fill-rule="evenodd" clip-rule="evenodd" d="M166.364 1372.08V1288.94H83.1364V1205.77H0V166.311H83.1364V83.1466H166.364V0.000854492H873.161V83.1466H956.299V166.311H1039.53V1205.77H956.299V1288.94H873.161V1372.08H166.364Z" fill="#F37E4C"/>
<path fill-rule="evenodd" clip-rule="evenodd" d="M218.358 1320.11V1236.96H135.13V1153.8H51.9937V218.277H135.13V135.114H218.358V51.9678H821.166V135.114H904.394V218.277H987.53V1153.8H904.394V1236.96H821.166V1320.11H218.358ZM769.443 1268.14V1184.99H852.58V1101.83H935.717V270.245H852.58V187.081H769.443V103.935H270.442V187.081H187.305V270.245H104.169V1101.83H187.305V1184.99H270.442V1268.14H769.443ZM353.669 1101.83V1018.66H270.442V935.519H436.806V852.346H519.942V769.2H603.08V686.036H686.306V602.873H769.443V1018.66H686.306V1101.83H353.669ZM634.131 1049.86V966.688H717.268V738.004H654.893V821.168H571.756V904.313H488.529V987.486H405.393V1049.86H634.131ZM270.442 769.2V353.39H353.669V270.245H686.306V353.39H769.443V436.554H603.08V519.727H519.942V602.873H436.806V686.036H353.669V769.2H270.442ZM384.631 634.069V550.905H467.768V467.76H550.995V384.587H634.131V322.212H405.393V405.358H322.256V634.069H384.631Z" fill="black"/>
</svg>
