<svg width="1040" height="1373" viewBox="0 0 1040 1373" fill="none" xmlns="http://www.w3.org/2000/svg">
<path fill-rule="evenodd" clip-rule="evenodd" d="M166.274 1372.08V1288.94H83.1364V1205.77H0V831.585H374.16V914.722H457.297V997.895H582.047V914.722H665.274V789.98H582.047V706.816H0V0.000610352H1039.44V374.188H873.161V415.793H956.298V498.938H1039.44V1205.77H956.298V1288.94H873.161V1372.08H166.274Z" fill="#F37E4C"/>
<path fill-rule="evenodd" clip-rule="evenodd" d="M218.268 1320.11V1236.96H135.131V1153.8H51.9941V883.552H322.165V966.688H405.393V1049.86H634.041V966.688H717.178V738.004H634.041V654.84H51.9941V51.9677H987.44V322.212H322.165V384.587H821.166V467.76H904.304V550.906H987.44V1153.8H904.304V1236.96H821.166V1320.11H218.268ZM769.082 1268.14V1184.99H852.219V1101.83H935.446V602.873H852.219V519.727H769.082V436.554H270.172V270.245H935.446V103.935H103.898V602.873H685.945V686.036H769.082V1018.66H685.945V1101.83H353.308V1018.66H270.172V935.519H103.898V1101.83H187.035V1184.99H270.172V1268.14H769.082Z" fill="black"/>
</svg>
