<svg width="1040" height="1373" viewBox="0 0 1040 1373" fill="none" xmlns="http://www.w3.org/2000/svg">
<path fill-rule="evenodd" clip-rule="evenodd" d="M166.273 1372.08V1288.94H83.1364V1205.77H0V831.585H166.273V789.981H83.1364V706.817H0V166.311H83.1364V83.1466H166.273V0.000854492H873.161V83.1466H956.298V166.311H1039.44V1205.77H956.298V1288.94H873.161V1372.08H166.273Z" fill="#F37E4C"/>
<path fill-rule="evenodd" clip-rule="evenodd" d="M218.267 1320.11V1236.96H135.13V1153.8H51.9939V883.552H322.165V966.688H405.393V1049.86H634.041V966.688H717.268V821.168H218.267V738.004H135.13V654.84H51.9939V218.277H135.13V135.114H218.267V51.9678H821.166V135.114H904.303V218.277H987.44V1153.8H904.303V1236.96H821.166V1320.11H218.267ZM769.172 1268.14V1184.99H852.308V1101.83H935.536V270.245H852.308V187.081H769.172V103.935H270.261V187.081H187.034V270.245H103.898V602.873H187.034V686.036H270.261V769.2H769.172V1018.66H686.035V1101.83H353.398V1018.66H270.261V935.519H103.898V1101.83H187.034V1184.99H270.261V1268.14H769.172ZM353.398 602.873V520.557H270.261V353.39H353.398V270.245H686.035V353.39H769.172V602.873H353.398ZM717.268 550.905V405.358H634.041V322.212H405.393V405.358H322.165V468.59H405.393V550.905H717.268Z" fill="black"/>
</svg>
