<svg width="1040" height="1373" viewBox="0 0 1040 1373" fill="none" xmlns="http://www.w3.org/2000/svg">
<path fill-rule="evenodd" clip-rule="evenodd" d="M166.311 1372.08V1288.94H83.1379V1205.77H0.000976562V166.311H83.1379V83.1466H166.311V0.000854492H873.145V83.1466H956.29V166.311H1039.45V540.498H873.145V582.102H956.29V665.266H1039.45V1205.77H956.29V1288.94H873.145V1372.08H166.311Z" fill="#F37E4C"/>
<path fill-rule="evenodd" clip-rule="evenodd" d="M218.285 1320.11V1236.96H135.112V1153.8H51.9753V218.277H135.112V135.114H218.285V51.9678H821.175V135.114H904.321V218.277H987.485V488.521H717.241V405.358H634.077V322.212H405.383V405.358H322.219V550.905H821.175V634.069H904.321V717.233H987.485V1153.8H904.321V1236.96H821.175V1320.11H218.285ZM769.136 1268.14V1184.99H852.281V1101.83H935.445V769.2H852.281V686.036H769.136V602.873H270.18V353.39H353.344V270.245H685.972V353.39H769.136V436.554H935.445V270.245H852.281V187.081H769.136V103.935H270.18V187.081H187.016V270.245H103.871V1101.83H187.016V1184.99H270.18V1268.14H769.136ZM353.344 1101.83V1018.66H270.18V769.2H685.972V852.346H769.136V1018.66H685.972V1101.83H353.344ZM634.077 1049.86V966.688H717.241V904.313H634.077V821.168H322.219V966.688H405.383V1049.86H634.077Z" fill="black"/>
</svg>
