<svg width="1040" height="1373" viewBox="0 0 1040 1373" fill="none" xmlns="http://www.w3.org/2000/svg">
<path fill-rule="evenodd" clip-rule="evenodd" d="M332.619 1372.08V582.102H415.792V498.939H498.938V415.793H582.102V374.188H0V0.000854492H1039.46V623.671H956.289V706.817H873.144V789.981H789.98V873.144H706.816V1372.08H332.619Z" fill="#F37E4C"/>
<path fill-rule="evenodd" clip-rule="evenodd" d="M384.594 1320.11V634.069H467.767V550.905H550.912V467.76H634.076V384.587H717.24V322.212H51.9744V51.9678H987.493V571.694H904.32V654.84H821.174V738.004H738.01V821.168H654.847V1320.11H384.594ZM602.88 1268.14V769.2H686.043V686.036H769.207V602.873H852.353V519.727H935.526V103.935H103.942V270.245H769.207V436.554H686.043V519.727H602.88V602.873H519.734V686.036H436.561V1268.14H602.88Z" fill="black"/>
</svg>
