<svg width="1040" height="1373" viewBox="0 0 1040 1373" fill="none" xmlns="http://www.w3.org/2000/svg">
<path fill-rule="evenodd" clip-rule="evenodd" d="M166.311 1372.08V1288.93H83.1378V1205.77H0.000854492V831.583H332.62V540.505H0.000854492V166.308H83.1378V83.1444H166.311V-0.00134277H873.144V83.1444H956.29V166.308H1039.44V1205.77H956.29V1288.93H873.144V1372.08H166.311Z" fill="#F37E4C"/>
<path fill-rule="evenodd" clip-rule="evenodd" d="M218.289 1320.1V1236.96H135.116V1153.79H51.9792V883.55H322.223V966.696H405.387V1049.86H634.081V966.696H717.245V904.312H634.081V821.175H384.599V550.904H634.081V467.758H717.245V405.356H634.081V322.21H405.387V405.356H322.223V488.528H51.9792V218.276H135.116V135.112H218.289V51.9658H821.179V135.112H904.325V218.276H987.453V654.838H904.325V717.24H987.453V1153.79H904.325V1236.96H821.179V1320.1H218.289ZM769.284 1268.34V1185.2H852.43V1102.03H935.594V769.415H852.43V603.078H935.594V270.45H852.43V187.287H769.284V104.141H270.329V187.287H187.156V270.45H104.01V436.769H270.329V353.596H353.492V270.45H686.111V353.596H769.284V519.933H686.111V603.078H436.638V769.415H686.111V852.552H769.284V1018.87H686.111V1102.03H353.492V1018.87H270.329V935.725H104.01V1102.03H187.156V1185.2H270.329V1268.34H769.284Z" fill="black"/>
</svg>
