<svg width="1040" height="1373" viewBox="0 0 1040 1373" fill="none" xmlns="http://www.w3.org/2000/svg">
<path fill-rule="evenodd" clip-rule="evenodd" d="M499.002 1372.08V1039.46H0.000732422V498.939H83.2286V415.793H166.365V332.62H249.501V249.456H332.639V166.311H415.866V83.1466H499.002V0.000854492H873.163V665.266H1039.53V1039.46H873.163V1372.08H499.002Z" fill="#F37E4C"/>
<path fill-rule="evenodd" clip-rule="evenodd" d="M550.905 1320.11V987.487H51.9946V550.906H135.132V467.76H218.359V384.587H301.495V301.423H384.632V218.277H467.769V135.114H550.905V51.9683H821.258V717.233H987.531V987.487H821.258V1320.11H550.905ZM769.264 1268.14V935.519H935.537V769.201H769.264V103.935H602.9V187.081H519.763V270.245H436.626V353.391H353.49V436.554H270.263V519.727H187.127V602.873H103.989V935.519H602.9V1268.14H769.264ZM270.263 769.201V686.037H353.49V602.873H436.626V519.727H519.763V436.554H602.9V769.201H270.263ZM550.905 717.233V571.695H488.53V654.84H405.394V717.233H550.905Z" fill="black"/>
</svg>
