<svg width="1040" height="1373" viewBox="0 0 1040 1373" fill="none" xmlns="http://www.w3.org/2000/svg">
<path fill-rule="evenodd" clip-rule="evenodd" d="M6.10352e-05 1372.08V665.266H83.1458V582.103H166.31V540.498H6.10352e-05V166.311H83.1458V83.1466H166.31V0.000854492H873.143V83.1466H956.289V166.311H1039.46V706.817H956.289V789.981H873.143V873.144H457.36V956.29H374.188V997.894H1039.46V1372.08H6.10352e-05Z" fill="#F37E4C"/>
<path fill-rule="evenodd" clip-rule="evenodd" d="M51.9745 1320.11V717.233H135.12V634.069H218.284V550.906H634.076V467.76H717.24V405.358H634.076V322.212H405.391V405.358H322.218V488.522H51.9745V218.277H135.12V135.114H218.284V51.9683H821.175V135.114H904.32V218.277H987.493V654.84H904.32V738.004H821.175V821.168H405.391V904.313H322.218V1049.86H987.493V1320.11H51.9745ZM935.526 1268.14V1101.83H270.251V852.347H353.424V769.201H769.207V686.037H852.353V602.873H935.526V270.245H852.353V187.081H769.207V103.935H270.251V187.081H187.088V270.245H103.942V436.554H270.251V353.391H353.424V270.245H686.043V353.391H769.207V519.727H686.043V602.873H270.251V686.037H187.088V769.201H103.942V1268.14H935.526Z" fill="black"/>
</svg>
