<svg width="1040" height="1373" viewBox="0 0 1040 1373" fill="none" xmlns="http://www.w3.org/2000/svg">
<path fill-rule="evenodd" clip-rule="evenodd" d="M166.31 1372.08V1288.94H83.146V1205.77H0.000244141V166.311H83.146V83.1466H166.31V0.000854492H873.153V83.1466H956.29V166.311H1039.43V1205.77H956.29V1288.94H873.153V1372.08H166.31Z" fill="#F37E4C"/>
<path fill-rule="evenodd" clip-rule="evenodd" d="M218.288 1320.11V1236.96H135.125V1153.8H51.9786V717.233H135.125V654.84H51.9786V218.277H135.125V135.114H218.288V51.9678H821.188V135.114H904.324V218.277H987.525V654.84H904.324V717.233H987.525V1153.8H904.324V1236.96H821.188V1320.11H218.288ZM769.148 1268.14V1184.99H852.294V1101.83H935.458V769.2H852.294V602.873H935.458V270.245H852.294V187.081H769.148V103.935H270.192V187.081H187.02V270.245H103.874V602.873H187.02V769.2H103.874V1101.83H187.02V1184.99H270.192V1268.14H769.148ZM353.356 1101.83V1018.66H270.192V852.346H353.356V769.2H685.976V852.346H769.148V1018.66H685.976V1101.83H353.356ZM634.08 1049.86V966.688H717.253V904.313H634.08V821.168H405.396V904.313H322.223V966.688H405.396V1049.86H634.08ZM353.356 602.873V519.727H270.192V353.39H353.356V270.245H685.976V353.39H769.148V519.727H685.976V602.873H353.356ZM634.08 550.905V467.76H717.253V405.358H634.08V322.212H405.396V405.358H322.223V467.76H405.396V550.905H634.08Z" fill="black"/>
</svg>
